<svg width="18" height="20" viewBox="0 0 18 20" fill="none" xmlns="http://www.w3.org/2000/svg">
<path d="M7.4873 17.5C7.61531 17.7533 7.7994 17.9637 8.02109 18.11C8.24277 18.2563 8.49424 18.3333 8.75022 18.3333C9.0062 18.3333 9.25767 18.2563 9.47936 18.11C9.70104 17.9637 9.88514 17.7533 10.0131 17.5" stroke="#1A1A1A" stroke-width="1.66667" stroke-linecap="round" stroke-linejoin="round"/>
<path d="M2.3785 12.7717C2.28324 12.8911 2.22038 13.0394 2.19756 13.1988C2.17474 13.3582 2.19294 13.5218 2.24995 13.6696C2.30696 13.8174 2.40032 13.943 2.51868 14.0313C2.63704 14.1196 2.77529 14.1666 2.91662 14.1667H14.5833C14.7246 14.1668 14.8629 14.1199 14.9813 14.0318C15.0997 13.9437 15.1932 13.8182 15.2504 13.6705C15.3076 13.5228 15.3259 13.3593 15.3033 13.1999C15.2807 13.0405 15.218 12.892 15.1229 12.7726C14.1531 11.6301 13.125 10.4159 13.125 6.66675C13.125 5.34067 12.664 4.0689 11.8435 3.13121C11.0231 2.19353 9.91028 1.66675 8.74996 1.66675C7.58963 1.66675 6.47684 2.19353 5.65636 3.13121C4.83589 4.0689 4.37496 5.34067 4.37496 6.66675C4.37496 10.4159 3.3461 11.6301 2.3785 12.7717Z" stroke="#1A1A1A" stroke-width="1.66667" stroke-linecap="round" stroke-linejoin="round"/>
</svg>
