<svg width="20" height="20" viewBox="0 0 20 20" fill="none" xmlns="http://www.w3.org/2000/svg">
<path d="M3.33331 16.25V3.74999C3.33331 3.19746 3.55281 2.66755 3.94351 2.27685C4.33421 1.88615 4.86411 1.66666 5.41665 1.66666H15.8333C16.0543 1.66666 16.2663 1.75445 16.4226 1.91073C16.5788 2.06701 16.6666 2.27898 16.6666 2.49999V17.5C16.6666 17.721 16.5788 17.933 16.4226 18.0892C16.2663 18.2455 16.0543 18.3333 15.8333 18.3333H5.41665C4.86411 18.3333 4.33421 18.1138 3.94351 17.7231C3.55281 17.3324 3.33331 16.8025 3.33331 16.25ZM3.33331 16.25C3.33331 15.6975 3.55281 15.1676 3.94351 14.7769C4.33421 14.3861 4.86411 14.1667 5.41665 14.1667H16.6666" stroke="white" stroke-width="1.66667" stroke-linecap="round" stroke-linejoin="round"/>
</svg>
