<svg width="24" height="24" viewBox="0 0 24 24" fill="none" xmlns="http://www.w3.org/2000/svg">
<path d="M5.33325 18.2501V5.75008C5.33325 5.19755 5.55275 4.66764 5.94345 4.27694C6.33415 3.88624 6.86405 3.66675 7.41659 3.66675H17.8333C18.0543 3.66675 18.2662 3.75455 18.4225 3.91083C18.5788 4.06711 18.6666 4.27907 18.6666 4.50008V19.5001C18.6666 19.7211 18.5788 19.9331 18.4225 20.0893C18.2662 20.2456 18.0543 20.3334 17.8333 20.3334H7.41659C6.86405 20.3334 6.33415 20.1139 5.94345 19.7232C5.55275 19.3325 5.33325 18.8026 5.33325 18.2501ZM5.33325 18.2501C5.33325 17.6975 5.55275 17.1676 5.94345 16.7769C6.33415 16.3862 6.86405 16.1667 7.41659 16.1667H18.6666" stroke="#0D7E5E" stroke-width="2" stroke-linecap="round" stroke-linejoin="round"/>
</svg>
