<svg width="20" height="20" viewBox="0 0 20 20" fill="none" xmlns="http://www.w3.org/2000/svg">
<path d="M9.99993 15V10.625M8.74993 10.4675C9.15831 10.5724 9.5783 10.6254 9.99993 10.625C10.4216 10.6254 10.8416 10.5724 11.2499 10.4675M11.8749 16.6992C10.636 16.9345 9.36386 16.9345 8.12493 16.6992M11.2499 18.685C10.4189 18.772 9.58099 18.772 8.74993 18.685M11.8749 15V14.84C11.8749 14.0209 12.4233 13.3209 13.1316 12.91C14.3216 12.2209 15.2511 11.1585 15.7761 9.88757C16.3011 8.61659 16.3923 7.20794 16.0355 5.87989C15.6787 4.55185 14.8939 3.37854 13.8026 2.54176C12.7114 1.70499 11.3747 1.25146 9.99951 1.25146C8.62438 1.25146 7.28762 1.70499 6.19638 2.54176C5.10513 3.37854 4.32032 4.55185 3.96354 5.87989C3.60676 7.20794 3.69793 8.61659 4.22292 9.88757C4.74792 11.1585 5.67743 12.2209 6.86743 12.91C7.57576 13.3209 8.12493 14.0209 8.12493 14.84V15" stroke="white" stroke-width="1.66667" stroke-linecap="round" stroke-linejoin="round"/>
</svg>
