<svg width="18" height="20" viewBox="0 0 18 20" fill="none" xmlns="http://www.w3.org/2000/svg">
<path d="M7.2915 1.66675V3.33341" stroke="#1A1A1A" stroke-width="1.66667" stroke-linecap="round" stroke-linejoin="round"/>
<path d="M10.2085 1.66675V3.33341" stroke="#1A1A1A" stroke-width="1.66667" stroke-linecap="round" stroke-linejoin="round"/>
<path d="M11.6667 6.66675C11.8601 6.66675 12.0455 6.75455 12.1823 6.91083C12.319 7.06711 12.3958 7.27907 12.3958 7.50008V14.1667C12.3958 15.0508 12.0885 15.8986 11.5416 16.5238C10.9946 17.1489 10.2527 17.5001 9.47917 17.5001H5.10417C4.33062 17.5001 3.58875 17.1489 3.04177 16.5238C2.49479 15.8986 2.1875 15.0508 2.1875 14.1667V7.50008C2.1875 7.27907 2.26432 7.06711 2.40107 6.91083C2.53781 6.75455 2.72328 6.66675 2.91667 6.66675H13.125C13.8985 6.66675 14.6404 7.01794 15.1874 7.64306C15.7344 8.26818 16.0417 9.11603 16.0417 10.0001C16.0417 10.8841 15.7344 11.732 15.1874 12.3571C14.6404 12.9822 13.8985 13.3334 13.125 13.3334H12.3958" stroke="#1A1A1A" stroke-width="1.66667" stroke-linecap="round" stroke-linejoin="round"/>
<path d="M4.375 1.66675V3.33341" stroke="#1A1A1A" stroke-width="1.66667" stroke-linecap="round" stroke-linejoin="round"/>
</svg>
