<svg width="28" height="28" viewBox="0 0 28 28" fill="none" xmlns="http://www.w3.org/2000/svg">
<path d="M18.9466 9.05334L16.8419 15.3662C16.7273 15.7099 16.5343 16.0221 16.2782 16.2783C16.022 16.5345 15.7097 16.7275 15.3661 16.842L9.05322 18.9467L11.1579 12.6338C11.2724 12.2902 11.4654 11.9779 11.7216 11.7217C11.9778 11.4656 12.29 11.2726 12.6337 11.158L18.9466 9.05334Z" stroke="white" stroke-width="2.33333" stroke-linecap="round" stroke-linejoin="round"/>
<path d="M14.0002 25.6667C20.4435 25.6667 25.6668 20.4434 25.6668 14C25.6668 7.55672 20.4435 2.33337 14.0002 2.33337C7.55684 2.33337 2.3335 7.55672 2.3335 14C2.3335 20.4434 7.55684 25.6667 14.0002 25.6667Z" stroke="white" stroke-width="2.33333" stroke-linecap="round" stroke-linejoin="round"/>
</svg>
