<svg width="28" height="28" viewBox="0 0 28 28" fill="none" xmlns="http://www.w3.org/2000/svg">
<path d="M21.0002 12.8333V6.99996C21.0002 6.38112 20.7543 5.78763 20.3167 5.35004C19.8792 4.91246 19.2857 4.66663 18.6668 4.66663C18.048 4.66663 17.4545 4.91246 17.0169 5.35004C16.5793 5.78763 16.3335 6.38112 16.3335 6.99996" stroke="white" stroke-width="2.33333" stroke-linecap="round" stroke-linejoin="round"/>
<path d="M16.3332 11.6667V4.66671C16.3332 4.04787 16.0873 3.45438 15.6498 3.01679C15.2122 2.57921 14.6187 2.33337 13.9998 2.33337C13.381 2.33337 12.7875 2.57921 12.3499 3.01679C11.9123 3.45438 11.6665 4.04787 11.6665 4.66671V7.00004" stroke="white" stroke-width="2.33333" stroke-linecap="round" stroke-linejoin="round"/>
<path d="M11.6667 12.25V6.99996C11.6667 6.38112 11.4208 5.78763 10.9832 5.35004C10.5457 4.91246 9.95217 4.66663 9.33333 4.66663C8.71449 4.66663 8.121 4.91246 7.68342 5.35004C7.24583 5.78763 7 6.38112 7 6.99996V16.3333" stroke="white" stroke-width="2.33333" stroke-linecap="round" stroke-linejoin="round"/>
<path d="M20.9998 9.33333C20.9998 8.71449 21.2456 8.121 21.6832 7.68342C22.1208 7.24583 22.7143 7 23.3331 7C23.952 7 24.5455 7.24583 24.983 7.68342C25.4206 8.121 25.6665 8.71449 25.6665 9.33333V16.3333C25.6665 18.8087 24.6831 21.1827 22.9328 22.933C21.1825 24.6833 18.8085 25.6667 16.3331 25.6667H13.9998C10.7331 25.6667 8.7498 24.6633 7.01146 22.9367L2.81146 18.7367C2.41005 18.2921 2.19498 17.7102 2.21077 17.1114C2.22657 16.5127 2.47202 15.9429 2.8963 15.5201C3.32059 15.0973 3.89121 14.8539 4.49003 14.8402C5.08884 14.8266 5.66999 15.0437 6.11313 15.4467L8.16646 17.5" stroke="white" stroke-width="2.33333" stroke-linecap="round" stroke-linejoin="round"/>
</svg>
