<svg width="18" height="20" viewBox="0 0 18 20" fill="none" xmlns="http://www.w3.org/2000/svg">
<path d="M1.4585 7.91662C1.45851 6.98929 1.70466 6.08377 2.16443 5.31967C2.6242 4.55557 3.27596 3.96883 4.03363 3.63695C4.7913 3.30507 5.61924 3.24366 6.40809 3.46082C7.19694 3.67799 7.9096 4.16352 8.45193 4.85329C8.49013 4.89996 8.53631 4.93718 8.58761 4.96262C8.63891 4.98806 8.69424 5.00119 8.75016 5.00119C8.80609 5.00119 8.86141 4.98806 8.91271 4.96262C8.96401 4.93718 9.01019 4.89996 9.04839 4.85329C9.58903 4.15904 10.3018 3.66943 11.092 3.44962C11.8821 3.22982 12.7121 3.29024 13.4714 3.62286C14.2308 3.95547 14.8835 4.5445 15.3426 5.31154C15.8018 6.07858 16.0457 6.98725 16.0418 7.91662C16.0418 9.82495 14.9481 11.25 13.8543 12.5L9.84975 16.9275C9.71388 17.1058 9.54636 17.249 9.35832 17.3477C9.17028 17.4464 8.96603 17.4982 8.75912 17.4997C8.55222 17.5012 8.34741 17.4523 8.15829 17.3564C7.96917 17.2605 7.80008 17.1196 7.66225 16.9433L3.646 12.5C2.55225 11.25 1.4585 9.83329 1.4585 7.91662Z" stroke="#1A1A1A" stroke-width="1.66667" stroke-linecap="round" stroke-linejoin="round"/>
</svg>
