<svg width="68" height="68" viewBox="0 0 68 68" fill="none" xmlns="http://www.w3.org/2000/svg">
<path d="M33.9409 5.65674L11.3135 16.9705V50.9116L33.9409 62.2253L56.5684 50.9116V16.9705L33.9409 5.65674ZM33.9409 12.1621L50.9115 20.6474V47.2347L33.9409 55.72L16.9703 47.2347V20.6474L33.9409 12.1621ZM33.9409 22.6273L22.6272 28.2842V45.2548L33.9409 50.9116L45.2546 45.2548V28.2842L33.9409 22.6273Z" fill="#D4AF37"/>
<path opacity="0.5" d="M39.5979 25.4558H28.2842V48.0833H39.5979V25.4558Z" fill="#D4AF37"/>
<g opacity="0.3">
<path d="M33.9412 16.9707V50.9119V16.9707ZM22.6274 28.2844L45.2549 39.5981L22.6274 28.2844ZM22.6274 39.5981L45.2549 28.2844L22.6274 39.5981Z" fill="#D4AF37"/>
<path d="M33.9412 16.9707V50.9119M22.6274 28.2844L45.2549 39.5981M22.6274 39.5981L45.2549 28.2844" stroke="#D4AF37" stroke-width="1.41422"/>
</g>
</svg>
