<svg width="28" height="28" viewBox="0 0 28 28" fill="none" xmlns="http://www.w3.org/2000/svg">
<path d="M23.3332 11.6667C23.3332 17.4919 16.871 23.5585 14.701 25.4322C14.4988 25.5842 14.2528 25.6664 13.9998 25.6664C13.7469 25.6664 13.5008 25.5842 13.2987 25.4322C11.1287 23.5585 4.6665 17.4919 4.6665 11.6667C4.6665 9.19135 5.64983 6.81738 7.40017 5.06704C9.15051 3.3167 11.5245 2.33337 13.9998 2.33337C16.4752 2.33337 18.8492 3.3167 20.5995 5.06704C22.3498 6.81738 23.3332 9.19135 23.3332 11.6667Z" stroke="white" stroke-width="2.33333" stroke-linecap="round" stroke-linejoin="round"/>
<path d="M14 15.1666C15.933 15.1666 17.5 13.5996 17.5 11.6666C17.5 9.73363 15.933 8.16663 14 8.16663C12.067 8.16663 10.5 9.73363 10.5 11.6666C10.5 13.5996 12.067 15.1666 14 15.1666Z" stroke="white" stroke-width="2.33333" stroke-linecap="round" stroke-linejoin="round"/>
</svg>
