<svg width="18" height="20" viewBox="0 0 18 20" fill="none" xmlns="http://www.w3.org/2000/svg">
<path d="M15.3015 10.4049C15.2332 11.8517 14.7996 13.2449 14.0532 14.4161C13.3068 15.5873 12.2796 16.4863 11.0957 17.0045C9.91175 17.5227 8.62184 17.6379 7.38185 17.3362C6.14186 17.0345 5.0049 16.3287 4.10839 15.3042C3.21189 14.2798 2.59423 12.9804 2.33007 11.5633C2.06591 10.1463 2.16658 8.67205 2.61988 7.31894C3.07319 5.96583 3.85975 4.79175 4.88446 3.93862C5.90917 3.08549 7.12817 2.58985 8.3941 2.51159C8.68941 2.49326 8.844 2.89493 8.68722 3.18076C8.16287 4.13955 7.93835 5.27315 8.05029 6.39655C8.16224 7.51995 8.60404 8.56682 9.3036 9.36632C10.0032 10.1658 10.9192 10.6707 11.9022 10.7987C12.8851 10.9266 13.877 10.67 14.716 10.0708C14.9668 9.89159 15.3175 10.0674 15.3015 10.4049Z" stroke="#1A1A1A" stroke-width="1.66667" stroke-linecap="round" stroke-linejoin="round"/>
</svg>
