<svg width="20" height="20" viewBox="0 0 20 20" fill="none" xmlns="http://www.w3.org/2000/svg">
<path d="M9.99992 14.1666C9.55789 14.1666 9.13397 13.9911 8.82141 13.6785C8.50885 13.3659 8.33325 12.942 8.33325 12.5C8.33325 11.575 9.07492 10.8333 9.99992 10.8333C10.4419 10.8333 10.8659 11.0089 11.1784 11.3215C11.491 11.634 11.6666 12.058 11.6666 12.5C11.6666 12.942 11.491 13.3659 11.1784 13.6785C10.8659 13.9911 10.4419 14.1666 9.99992 14.1666ZM14.9999 16.6666V8.33331H4.99992V16.6666H14.9999ZM14.9999 6.66665C15.4419 6.66665 15.8659 6.84224 16.1784 7.1548C16.491 7.46736 16.6666 7.89129 16.6666 8.33331V16.6666C16.6666 17.1087 16.491 17.5326 16.1784 17.8452C15.8659 18.1577 15.4419 18.3333 14.9999 18.3333H4.99992C4.55789 18.3333 4.13397 18.1577 3.82141 17.8452C3.50885 17.5326 3.33325 17.1087 3.33325 16.6666V8.33331C3.33325 7.40831 4.07492 6.66665 4.99992 6.66665H5.83325V4.99998C5.83325 3.89491 6.27224 2.8351 7.05364 2.0537C7.83504 1.2723 8.89485 0.833313 9.99992 0.833313C10.5471 0.833313 11.0889 0.941087 11.5944 1.15048C12.1 1.35988 12.5593 1.66679 12.9462 2.0537C13.3331 2.44061 13.64 2.89994 13.8494 3.40547C14.0588 3.91099 14.1666 4.45281 14.1666 4.99998V6.66665H14.9999ZM9.99992 2.49998C9.33688 2.49998 8.70099 2.76337 8.23215 3.23221C7.76331 3.70105 7.49992 4.33694 7.49992 4.99998V6.66665H12.4999V4.99998C12.4999 4.33694 12.2365 3.70105 11.7677 3.23221C11.2988 2.76337 10.663 2.49998 9.99992 2.49998Z" fill="url(#paint0_linear_97_345)"/>
<defs>
<linearGradient id="paint0_linear_97_345" x1="9.99992" y1="0.833313" x2="9.99992" y2="18.3333" gradientUnits="userSpaceOnUse">
<stop stop-color="#0D7E5E"/>
<stop offset="1" stop-color="#0A6349"/>
</linearGradient>
</defs>
</svg>
