<svg width="28" height="28" viewBox="0 0 28 28" fill="none" xmlns="http://www.w3.org/2000/svg">
<path d="M5.83337 5.83354C5.83325 5.42298 5.94146 5.01965 6.14707 4.66429C6.35268 4.30893 6.64842 4.01411 7.00442 3.8096C7.36041 3.60509 7.76407 3.49813 8.17463 3.49953C8.58518 3.50092 8.98811 3.61061 9.34271 3.81754L23.3392 11.9819C23.6924 12.1868 23.9857 12.4809 24.1896 12.8347C24.3936 13.1885 24.5011 13.5896 24.5015 13.998C24.5018 14.4064 24.395 14.8077 24.1917 15.1619C23.9883 15.516 23.6956 15.8106 23.3427 16.0162L9.34271 24.1829C8.98811 24.3898 8.58518 24.4995 8.17463 24.5009C7.76407 24.5023 7.36041 24.3953 7.00442 24.1908C6.64842 23.9863 6.35268 23.6915 6.14707 23.3361C5.94146 22.9808 5.83325 22.5774 5.83337 22.1669V5.83354Z" stroke="white" stroke-width="2.33333" stroke-linecap="round" stroke-linejoin="round"/>
</svg>
