<svg width="25" height="25" viewBox="0 0 25 25" fill="none" xmlns="http://www.w3.org/2000/svg">
<path d="M10.0739 4.30835C10.1313 3.70454 10.4118 3.14381 10.8605 2.73572C11.3092 2.32764 11.8939 2.1015 12.5005 2.1015C13.107 2.1015 13.6918 2.32764 14.1405 2.73572C14.5892 3.14381 14.8696 3.70454 14.927 4.30835C14.9615 4.69841 15.0895 5.07441 15.3001 5.40454C15.5107 5.73466 15.7977 6.00919 16.1369 6.20489C16.4761 6.40058 16.8574 6.51168 17.2486 6.52879C17.6398 6.54589 18.0294 6.46849 18.3843 6.30314C18.9355 6.05291 19.56 6.0167 20.1364 6.20156C20.7128 6.38642 21.1998 6.77913 21.5026 7.30325C21.8054 7.82737 21.9023 8.4454 21.7746 9.03707C21.6468 9.62873 21.3035 10.1517 20.8114 10.5042C20.491 10.729 20.2294 11.0277 20.0488 11.375C19.8682 11.7224 19.774 12.108 19.774 12.4995C19.774 12.8909 19.8682 13.2766 20.0488 13.6239C20.2294 13.9713 20.491 14.27 20.8114 14.4948C21.3035 14.8473 21.6468 15.3703 21.7746 15.9619C21.9023 16.5536 21.8054 17.1716 21.5026 17.6957C21.1998 18.2199 20.7128 18.6126 20.1364 18.7974C19.56 18.9823 18.9355 18.9461 18.3843 18.6958C18.0294 18.5305 17.6398 18.4531 17.2486 18.4702C16.8574 18.4873 16.4761 18.5984 16.1369 18.7941C15.7977 18.9898 15.5107 19.2643 15.3001 19.5945C15.0895 19.9246 14.9615 20.3006 14.927 20.6906C14.8696 21.2945 14.5892 21.8552 14.1405 22.2633C13.6918 22.6714 13.107 22.8975 12.5005 22.8975C11.8939 22.8975 11.3092 22.6714 10.8605 22.2633C10.4118 21.8552 10.1313 21.2945 10.0739 20.6906C10.0395 20.3004 9.91151 19.9243 9.70085 19.594C9.49019 19.2638 9.20305 18.9892 8.86373 18.7935C8.52442 18.5978 8.14294 18.4867 7.7516 18.4697C7.36025 18.4527 6.97058 18.5303 6.61558 18.6958C6.06442 18.9461 5.43987 18.9823 4.86349 18.7974C4.28711 18.6126 3.80013 18.2199 3.49733 17.6957C3.19453 17.1716 3.09757 16.5536 3.22533 15.9619C3.35308 15.3703 3.69641 14.8473 4.18849 14.4948C4.50893 14.27 4.7705 13.9713 4.95108 13.6239C5.13167 13.2766 5.22594 12.8909 5.22594 12.4995C5.22594 12.108 5.13167 11.7224 4.95108 11.375C4.7705 11.0277 4.50893 10.729 4.18849 10.5042C3.6971 10.1515 3.35438 9.62876 3.22693 9.0375C3.09948 8.44623 3.19642 7.8287 3.49889 7.30492C3.80137 6.78115 4.28778 6.38853 4.86359 6.20339C5.4394 6.01825 6.06348 6.0538 6.61453 6.30314C6.96949 6.46849 7.35906 6.54589 7.75026 6.52879C8.14147 6.51168 8.5228 6.40058 8.86197 6.20489C9.20114 6.00919 9.48817 5.73466 9.69877 5.40454C9.90937 5.07441 10.0373 4.69841 10.0718 4.30835" stroke="white" stroke-width="1.33333" stroke-linecap="round" stroke-linejoin="round"/>
<path d="M12.5 15.625C14.2259 15.625 15.625 14.2259 15.625 12.5C15.625 10.7741 14.2259 9.375 12.5 9.375C10.7741 9.375 9.375 10.7741 9.375 12.5C9.375 14.2259 10.7741 15.625 12.5 15.625Z" stroke="white" stroke-width="1.33333" stroke-linecap="round" stroke-linejoin="round"/>
</svg>
