<svg width="25" height="25" viewBox="0 0 25 25" fill="none" xmlns="http://www.w3.org/2000/svg">
<path d="M10.0739 4.30841C10.1313 3.7046 10.4118 3.14387 10.8605 2.73578C11.3092 2.3277 11.8939 2.10156 12.5005 2.10156C13.107 2.10156 13.6918 2.3277 14.1405 2.73578C14.5892 3.14387 14.8696 3.7046 14.927 4.30841C14.9615 4.69847 15.0895 5.07447 15.3001 5.4046C15.5107 5.73472 15.7977 6.00925 16.1369 6.20495C16.4761 6.40064 16.8574 6.51174 17.2486 6.52885C17.6398 6.54595 18.0294 6.46855 18.3843 6.3032C18.9355 6.05297 19.56 6.01676 20.1364 6.20162C20.7128 6.38649 21.1998 6.77919 21.5026 7.30331C21.8054 7.82743 21.9023 8.44546 21.7746 9.03713C21.6468 9.62879 21.3035 10.1518 20.8114 10.5042C20.491 10.7291 20.2294 11.0278 20.0488 11.3751C19.8682 11.7224 19.774 12.1081 19.774 12.4996C19.774 12.891 19.8682 13.2767 20.0488 13.624C20.2294 13.9713 20.491 14.27 20.8114 14.4949C21.3035 14.8474 21.6468 15.3703 21.7746 15.962C21.9023 16.5536 21.8054 17.1717 21.5026 17.6958C21.1998 18.2199 20.7128 18.6126 20.1364 18.7975C19.56 18.9823 18.9355 18.9461 18.3843 18.6959C18.0294 18.5306 17.6398 18.4532 17.2486 18.4703C16.8574 18.4874 16.4761 18.5985 16.1369 18.7942C15.7977 18.9899 15.5107 19.2644 15.3001 19.5945C15.0895 19.9246 14.9615 20.3006 14.927 20.6907C14.8696 21.2945 14.5892 21.8552 14.1405 22.2633C13.6918 22.6714 13.107 22.8975 12.5005 22.8975C11.8939 22.8975 11.3092 22.6714 10.8605 22.2633C10.4118 21.8552 10.1313 21.2945 10.0739 20.6907C10.0395 20.3005 9.91151 19.9244 9.70085 19.5941C9.49019 19.2639 9.20305 18.9893 8.86374 18.7935C8.52442 18.5978 8.14294 18.4868 7.7516 18.4698C7.36025 18.4528 6.97058 18.5303 6.61558 18.6959C6.06442 18.9461 5.43987 18.9823 4.86349 18.7975C4.28711 18.6126 3.80013 18.2199 3.49733 17.6958C3.19453 17.1717 3.09757 16.5536 3.22533 15.962C3.35308 15.3703 3.69641 14.8474 4.18849 14.4949C4.50893 14.27 4.7705 13.9713 4.95108 13.624C5.13167 13.2767 5.22594 12.891 5.22594 12.4996C5.22594 12.1081 5.13167 11.7224 4.95108 11.3751C4.7705 11.0278 4.50893 10.7291 4.18849 10.5042C3.6971 10.1516 3.35438 9.62882 3.22693 9.03756C3.09948 8.44629 3.19642 7.82876 3.49889 7.30499C3.80137 6.78121 4.28778 6.38859 4.86359 6.20345C5.4394 6.01831 6.06348 6.05386 6.61453 6.3032C6.96949 6.46855 7.35906 6.54595 7.75026 6.52885C8.14147 6.51174 8.5228 6.40064 8.86197 6.20495C9.20114 6.00925 9.48817 5.73472 9.69877 5.4046C9.90937 5.07447 10.0373 4.69847 10.0718 4.30841" stroke="white" stroke-width="1.33333" stroke-linecap="round" stroke-linejoin="round"/>
<path d="M12.5 15.625C14.2259 15.625 15.625 14.2259 15.625 12.5C15.625 10.7741 14.2259 9.375 12.5 9.375C10.7741 9.375 9.375 10.7741 9.375 12.5C9.375 14.2259 10.7741 15.625 12.5 15.625Z" stroke="white" stroke-width="1.33333" stroke-linecap="round" stroke-linejoin="round"/>
</svg>
