<svg width="28" height="28" viewBox="0 0 28 28" fill="none" xmlns="http://www.w3.org/2000/svg">
<path d="M5.7167 22.2833C1.1667 17.7333 1.1667 10.2667 5.7167 5.71667" stroke="white" stroke-width="1.66667" stroke-linecap="round" stroke-linejoin="round"/>
<path d="M9.0999 18.8999C6.41657 16.2166 6.41657 11.7833 9.0999 8.98328" stroke="white" stroke-width="1.66667" stroke-linecap="round" stroke-linejoin="round"/>
<path d="M13.9998 16.3333C15.2885 16.3333 16.3332 15.2886 16.3332 14C16.3332 12.7113 15.2885 11.6666 13.9998 11.6666C12.7112 11.6666 11.6665 12.7113 11.6665 14C11.6665 15.2886 12.7112 16.3333 13.9998 16.3333Z" stroke="white" stroke-width="1.66667" stroke-linecap="round" stroke-linejoin="round"/>
<path d="M18.8999 9.09998C21.5832 11.7833 21.5832 16.2166 18.8999 19.0166" stroke="white" stroke-width="1.66667" stroke-linecap="round" stroke-linejoin="round"/>
<path d="M22.2832 5.71667C26.8332 10.2667 26.8332 17.6167 22.2832 22.1667" stroke="white" stroke-width="1.66667" stroke-linecap="round" stroke-linejoin="round"/>
</svg>
