<svg width="20" height="20" viewBox="0 0 20 20" fill="none" xmlns="http://www.w3.org/2000/svg">
<path d="M4.08331 15.9166C0.833313 12.6666 0.833313 7.33331 4.08331 4.08331" stroke="white" stroke-width="1.66667" stroke-linecap="round" stroke-linejoin="round"/>
<path d="M6.5 13.5C4.58333 11.5834 4.58333 8.41669 6.5 6.41669" stroke="white" stroke-width="1.66667" stroke-linecap="round" stroke-linejoin="round"/>
<path d="M9.99998 11.6666C10.9205 11.6666 11.6666 10.9205 11.6666 9.99998C11.6666 9.07951 10.9205 8.33331 9.99998 8.33331C9.07951 8.33331 8.33331 9.07951 8.33331 9.99998C8.33331 10.9205 9.07951 11.6666 9.99998 11.6666Z" stroke="white" stroke-width="1.66667" stroke-linecap="round" stroke-linejoin="round"/>
<path d="M13.5 6.5C15.4167 8.41667 15.4167 11.5833 13.5 13.5833" stroke="white" stroke-width="1.66667" stroke-linecap="round" stroke-linejoin="round"/>
<path d="M15.9167 4.08331C19.1667 7.33331 19.1667 12.5833 15.9167 15.8333" stroke="white" stroke-width="1.66667" stroke-linecap="round" stroke-linejoin="round"/>
</svg>
