<svg width="18" height="20" viewBox="0 0 18 20" fill="none" xmlns="http://www.w3.org/2000/svg">
<path d="M8.40366 1.91249C8.43561 1.83871 8.48497 1.7766 8.54617 1.73318C8.60737 1.68976 8.67798 1.66675 8.75001 1.66675C8.82205 1.66675 8.89265 1.68976 8.95385 1.73318C9.01505 1.7766 9.06441 1.83871 9.09636 1.91249L10.7807 5.81166C10.8917 6.0683 11.0555 6.29033 11.2581 6.4587C11.4606 6.62707 11.6959 6.73675 11.9438 6.77833L15.7106 7.40833C15.782 7.42014 15.8491 7.45455 15.9042 7.50766C15.9594 7.56076 16.0004 7.63045 16.0227 7.70883C16.045 7.78721 16.0477 7.87116 16.0304 7.95119C16.0132 8.03121 15.9766 8.10412 15.925 8.16166L13.2008 11.1933C13.0212 11.3934 12.8868 11.6404 12.8092 11.913C12.7316 12.1856 12.7131 12.4757 12.7553 12.7583L13.3984 17.0417C13.411 17.1232 13.4033 17.2071 13.3762 17.2839C13.3491 17.3607 13.3036 17.4272 13.245 17.4758C13.1864 17.5245 13.117 17.5533 13.0447 17.5591C12.9724 17.5648 12.9002 17.5472 12.8363 17.5083L9.46897 15.485C9.2471 15.3518 9.00025 15.2823 8.74965 15.2823C8.49905 15.2823 8.2522 15.3518 8.03032 15.485L4.66376 17.5083C4.59984 17.547 4.5277 17.5644 4.45555 17.5585C4.3834 17.5527 4.31414 17.5238 4.25564 17.4752C4.19715 17.4266 4.15176 17.3601 4.12466 17.2835C4.09755 17.2069 4.0898 17.1231 4.1023 17.0417L4.7447 12.7592C4.78713 12.4764 4.76875 12.1862 4.69113 11.9134C4.61351 11.6406 4.479 11.3935 4.29918 11.1933L1.57501 8.16249C1.52294 8.10502 1.48605 8.03199 1.46852 7.95172C1.451 7.87145 1.45356 7.78717 1.4759 7.70848C1.49824 7.6298 1.53948 7.55986 1.5949 7.50665C1.65032 7.45343 1.71771 7.41907 1.78939 7.40749L5.55553 6.77833C5.80363 6.73708 6.03925 6.62754 6.2421 6.45915C6.44495 6.29076 6.60896 6.06855 6.72001 5.81166L8.40366 1.91249Z" stroke="#1A1A1A" stroke-width="1.66667" stroke-linecap="round" stroke-linejoin="round"/>
</svg>
