<svg width="25" height="25" viewBox="0 0 25 25" fill="none" xmlns="http://www.w3.org/2000/svg">
<path d="M11.4585 4.89793C11.4583 4.75283 11.4151 4.61106 11.3344 4.49048C11.2537 4.36991 11.1391 4.27595 11.005 4.22045C10.871 4.16496 10.7235 4.15042 10.5811 4.17866C10.4388 4.20691 10.3081 4.27669 10.2054 4.37918L6.68037 7.90313C6.54433 8.03998 6.38249 8.14848 6.20422 8.22233C6.02595 8.29617 5.83479 8.33391 5.64183 8.33334H3.12516C2.8489 8.33334 2.58394 8.44309 2.38859 8.63844C2.19324 8.83379 2.0835 9.09874 2.0835 9.37501V15.625C2.0835 15.9013 2.19324 16.1662 2.38859 16.3616C2.58394 16.5569 2.8489 16.6667 3.12516 16.6667H5.64183C5.83479 16.6661 6.02595 16.7038 6.20422 16.7777C6.38249 16.8515 6.54433 16.96 6.68037 17.0969L10.2043 20.6219C10.307 20.7248 10.438 20.7949 10.5806 20.8233C10.7232 20.8517 10.871 20.8372 11.0053 20.7815C11.1396 20.7259 11.2544 20.6316 11.3351 20.5106C11.4157 20.3897 11.4587 20.2475 11.4585 20.1021V4.89793Z" stroke="white" stroke-width="1.33333" stroke-linecap="round" stroke-linejoin="round"/>
<path d="M16.6665 9.375C17.3427 10.2765 17.7082 11.3731 17.7082 12.5C17.7082 13.6269 17.3427 14.7235 16.6665 15.625" stroke="white" stroke-width="1.33333" stroke-linecap="round" stroke-linejoin="round"/>
<path d="M20.1709 19.1292C21.0415 18.2586 21.732 17.2251 22.2032 16.0877C22.6743 14.9503 22.9168 13.7312 22.9168 12.5C22.9168 11.2689 22.6743 10.0498 22.2032 8.91233C21.732 7.7749 21.0415 6.7414 20.1709 5.87085" stroke="white" stroke-width="1.33333" stroke-linecap="round" stroke-linejoin="round"/>
</svg>
